<svg width="27" height="27" viewBox="0 0 27 27" fill="none" xmlns="http://www.w3.org/2000/svg">
<path d="M18.125 13.25C15.437 13.25 13.25 15.437 13.25 18.125C13.25 20.813 15.437 23 18.125 23C20.813 23 23 20.813 23 18.125C23 15.437 20.813 13.25 18.125 13.25ZM20.564 16.9318L17.939 19.9318C17.8025 20.0878 17.6075 20.1807 17.3998 20.1875C17.3915 20.1875 17.3833 20.1875 17.375 20.1875C17.1762 20.1875 16.9858 20.1088 16.8448 19.9678L15.3448 18.4678C15.0515 18.1745 15.0515 17.7005 15.3448 17.4072C15.638 17.114 16.112 17.114 16.4052 17.4072L17.3383 18.3403L19.4352 15.9432C19.7082 15.6327 20.1823 15.5997 20.4935 15.8727C20.8048 16.1457 20.837 16.6198 20.564 16.9318Z" fill="#ABAADD"/>
<path d="M17.51 7.2725L11.51 5.0225C11.42 4.9925 11.33 4.9925 11.24 5.0225L5.24 7.2725C5.0975 7.325 5 7.4675 5 7.625V12.4475C5 19.2875 11.2325 20.7275 11.2925 20.7425C11.3225 20.75 11.345 20.75 11.375 20.75C11.405 20.75 11.4275 20.75 11.4575 20.7425C11.4725 20.7425 11.765 20.675 12.215 20.5025C11.915 19.7675 11.75 18.965 11.75 18.125C11.75 14.735 14.405 11.9525 17.75 11.7575V7.625C17.75 7.4675 17.6525 7.325 17.51 7.2725Z" fill="#ABAADD"/>
</svg>
