<svg width="14" height="14" viewBox="0 0 14 14" fill="none" xmlns="http://www.w3.org/2000/svg">
<path fill-rule="evenodd" clip-rule="evenodd" d="M13.0716 3.02385C13.6581 3.33757 13.941 3.86705 13.9708 4.4058C13.9894 4.51832 14 4.63348 14 4.75129V11.6935C14 12.8299 13.0782 13.7505 11.9404 13.7505H2.0954C0.957556 13.7505 0.0357514 12.8299 0.0357514 11.6935V4.85719C-0.101426 4.18077 0.149734 3.42559 0.900565 3.02385L6.18288 0.201038C6.68454 -0.0670128 7.28759 -0.0670128 7.78925 0.201038L12.8555 2.90869C12.8913 2.92656 12.9264 2.94509 12.9609 2.96494L13.0716 3.02385ZM4.08901 8.94797C4.08901 10.551 5.39451 11.8548 6.99955 11.8548C8.60459 11.8548 9.9101 10.551 9.9101 8.94797C9.9101 8.67397 9.68743 8.45158 9.41308 8.45158C9.13872 8.45158 8.91606 8.67397 8.91606 8.94797C8.91606 10.0036 8.05655 10.8621 6.99955 10.8621C5.94256 10.8621 5.08305 10.0036 5.08305 8.94797C5.08305 8.67397 4.86038 8.45158 4.58603 8.45158C4.31167 8.45158 4.08901 8.67397 4.08901 8.94797Z" fill="#ABAADD"/>
</svg>
