<svg width="27" height="27" viewBox="0 0 27 27" fill="none" xmlns="http://www.w3.org/2000/svg">
<path fill-rule="evenodd" clip-rule="evenodd" d="M12.8907 6.00085C16.7627 5.94173 19.9231 8.98928 19.9981 12.861C20.0091 13.4295 19.9522 13.9828 19.8352 14.5135C19.637 15.4121 19.5192 16.3267 19.5192 17.2469V19.0257C19.5192 19.2982 19.2982 19.5191 19.0257 19.5191H17.2469C16.3267 19.5191 15.4122 19.6369 14.5136 19.8351C13.9829 19.9522 13.4295 20.009 12.8612 19.998C8.98936 19.9231 5.94178 16.7629 6.00084 12.8909C6.05845 9.11153 9.11134 6.05859 12.8907 6.00085ZM13.853 17.2262H12.3064C12.0929 17.2262 11.9197 17.0531 11.9197 16.8395V12.1997C11.9197 11.9862 12.0929 11.8131 12.3064 11.8131H13.853C14.0665 11.8131 14.2396 11.9862 14.2396 12.1997V16.8395C14.2396 17.0531 14.0665 17.2262 13.853 17.2262ZM11.9197 9.87981C11.9197 10.5194 12.4401 11.0398 13.0797 11.0398C13.7193 11.0398 14.2396 10.5194 14.2396 9.87981C14.2396 9.24021 13.7193 8.71986 13.0797 8.71986C12.4401 8.71986 11.9197 9.24021 11.9197 9.87981Z" fill="#ABAADD"/>
</svg>
