<svg width="27" height="27" viewBox="0 0 27 27" fill="none" xmlns="http://www.w3.org/2000/svg">
<path d="M18.5682 11.1416C17.6566 9.94801 16.6076 9.07441 15.4837 8.55762C16.7825 7.69629 17.4943 5.95308 17.4943 3.61523C17.4943 3.27066 17.2196 3 16.8699 3H15.6211C14.5971 3 13.698 3.47992 13.1235 4.23047C12.5491 3.47992 11.65 3 10.626 3H9.37721C9.02751 3 8.75282 3.27066 8.75282 3.61523C8.75282 5.95308 9.46463 7.69629 10.7634 8.55762C9.6395 9.07441 8.59048 9.94796 7.67892 11.1416C5.45606 14.0701 4.45704 18.2414 5.29367 21.0592C5.81824 22.7941 7.51654 24 9.43965 24H16.8074C18.7305 24 20.4288 22.7941 20.9534 21.0592C21.79 18.2414 20.791 14.0701 18.5682 11.1416ZM12.4992 15.3867H13.7479C14.7845 15.3867 15.6211 16.2111 15.6211 17.2324C15.6211 18.2537 14.7845 19.0781 13.7479 19.0781V19.6934C13.7479 20.0378 13.4732 20.3086 13.1235 20.3086C12.7738 20.3086 12.4992 20.0378 12.4992 19.6934V19.0781C11.4626 19.0781 10.626 18.2537 10.626 17.2324C10.626 16.8878 10.9007 16.6172 11.2504 16.6172C11.6001 16.6172 11.8748 16.8878 11.8748 17.2324C11.8748 17.5769 12.1495 17.8477 12.4992 17.8477H13.7479C14.0976 17.8477 14.3723 17.5769 14.3723 17.2324C14.3723 16.8878 14.0976 16.6172 13.7479 16.6172H12.4992C11.4626 16.6172 10.626 15.7927 10.626 14.7715C10.626 13.7502 11.4626 12.9258 12.4992 12.9258V12.3105C12.4992 11.966 12.7738 11.6953 13.1235 11.6953C13.4732 11.6953 13.7479 11.966 13.7479 12.3105V12.9258C14.7845 12.9258 15.6211 13.7502 15.6211 14.7715C15.6211 15.116 15.3464 15.3867 14.9967 15.3867C14.647 15.3867 14.3723 15.116 14.3723 14.7715C14.3723 14.4269 14.0976 14.1562 13.7479 14.1562H12.4992C12.1495 14.1562 11.8748 14.4269 11.8748 14.7715C11.8748 15.116 12.1495 15.3867 12.4992 15.3867Z" fill="#ABAADD"/>
</svg>
