<svg width="27" height="27" viewBox="0 0 27 27" fill="none" xmlns="http://www.w3.org/2000/svg">
<path d="M13.6746 10.6956C13.8403 10.7276 13.9619 10.5431 13.8673 10.4034L13.7876 10.2857C13.2184 9.44482 12.3385 8.86453 11.3414 8.67249L8.78774 8.1427L8.50769 9.73742L13.6746 10.6956Z" fill="#ABAADD"/>
<path d="M18.5789 13.2605C21.0206 13.2605 23 11.2811 23 8.83945C23 6.39777 21.0206 4.4184 18.5789 4.4184C16.1373 4.4184 14.1579 6.39777 14.1579 8.83945C14.1579 11.2811 16.1373 13.2605 18.5789 13.2605Z" fill="#ABAADD"/>
<path d="M16.0402 8.72926C16.0402 6.70157 17.405 4.99255 19.2663 4.47138C19.0422 4.43637 18.8129 4.4184 18.579 4.4184C16.1373 4.4184 14.1579 6.39775 14.1579 8.83945C14.1579 11.2811 16.1372 13.2605 18.579 13.2605C18.9929 13.2605 19.3936 13.2034 19.7736 13.097C17.6585 12.7666 16.0402 10.937 16.0402 8.72926Z" fill="#8784B1"/>
<path d="M18.6049 11.9945C20.3787 11.9945 21.8167 10.5565 21.8167 8.78265C21.8167 7.00879 20.3787 5.5708 18.6049 5.5708C16.831 5.5708 15.393 7.00879 15.393 8.78265C15.393 10.5565 16.831 11.9945 18.6049 11.9945Z" fill="#17163A"/>
<path d="M19.7871 8.60727C19.9403 8.42943 20.0332 8.19832 20.0332 7.94579C20.0332 7.44352 19.6665 7.02553 19.1868 6.94483V6.66718C19.1868 6.52146 19.0687 6.40332 18.9229 6.40332C18.7772 6.40332 18.6591 6.52146 18.6591 6.66718V6.93051H18.2922V6.66718C18.2922 6.52146 18.1741 6.40332 18.0283 6.40332C17.8826 6.40332 17.7645 6.52146 17.7645 6.66718V6.93051H17.0953C16.9496 6.93051 16.8315 7.04864 16.8315 7.19436C16.8315 7.34008 16.9496 7.45822 17.0953 7.45822H17.2522V10.4565C17.2522 10.5265 17.28 10.5936 17.3295 10.6431C17.3789 10.6926 17.446 10.7204 17.516 10.7204H17.5161L19.1835 10.7201C19.8137 10.7201 20.3264 10.2074 20.3264 9.57717C20.3264 9.16844 20.1107 8.80935 19.7871 8.60727ZM19.5054 7.94579C19.5054 8.21465 19.2867 8.43337 19.0179 8.43337C18.9484 8.43337 17.7799 8.43425 17.7799 8.43425V7.45822H19.0179C19.2868 7.45822 19.5054 7.67694 19.5054 7.94579ZM19.1835 10.1923L17.78 10.1926V8.96376C17.9858 8.96326 19.1835 8.96196 19.1835 8.96196C19.5228 8.96196 19.7987 9.23792 19.7987 9.57714C19.7987 9.91635 19.5228 10.1923 19.1835 10.1923Z" fill="#ABAADD"/>
<path d="M9.06331 12.6848C9.38369 12.7849 9.68327 12.9321 9.95388 13.1184C10.0345 13.1739 10.1422 13.1647 10.2115 13.0957C10.9164 12.3932 11.8887 11.9588 12.9625 11.9588C15.0478 11.9588 16.7507 13.5965 16.8551 15.6558C16.8608 15.7687 16.9557 15.8564 17.0687 15.8564H18.5318C19.9522 15.8564 21.1362 16.9862 21.1546 18.4065C21.1733 19.8496 20.0091 21.0253 18.5703 21.0253H4.62298C3.20258 21.0253 2.01863 19.8954 2.00022 18.4752C1.9815 17.0321 3.14569 15.8564 4.58446 15.8564C4.6405 15.8564 4.69593 15.8588 4.75108 15.8623C4.75108 15.8603 4.75093 15.8584 4.75093 15.8564C4.75093 14.1904 5.97732 12.811 7.57651 12.5713L8.34048 12.5024L9.06331 12.6848Z" fill="#ABAADD"/>
<path d="M11.063 8.61472L8.78774 8.1427L8.50769 9.73742L10.7568 10.1545C10.7719 10.1073 10.7849 10.059 10.7945 10.0094L11.0624 8.61868L11.063 8.61472Z" fill="#8784B1"/>
<path d="M8.39221 13.4888V12.5154L8.34048 12.5023L7.57651 12.5713C5.97732 12.811 4.75093 14.1903 4.75093 15.8563C4.75093 15.8583 4.75108 15.8602 4.75108 15.8622C4.69593 15.8587 4.6405 15.8563 4.58446 15.8563C3.14569 15.8563 1.9815 17.032 2.00022 18.4751C2.01779 19.8301 3.09651 20.9201 4.42905 21.0174C3.92977 20.5548 3.61178 19.9019 3.6023 19.1718C3.58358 17.7287 4.74777 16.553 6.18654 16.553C6.24258 16.553 6.29801 16.5554 6.35316 16.559C6.35316 16.557 6.35301 16.555 6.35301 16.553C6.35301 15.1732 7.19462 13.9907 8.39221 13.4888Z" fill="#8784B1"/>
<path d="M8.03729 18.5237C7.99982 18.737 7.79445 18.8779 7.58195 18.836L6.65248 18.653C6.44003 18.6112 6.30337 18.4029 6.34955 18.1914L8.61804 7.80066L8.80746 6.93308C8.85233 6.72756 9.05335 6.59568 9.25972 6.63632L9.72569 6.7281C9.93209 6.76873 10.0681 6.96702 10.0317 7.17419L9.87798 8.04882L8.03729 18.5237Z" fill="#8784B1"/>
<path d="M8.00821 8.03027L6.9727 7.8308C5.97567 7.63872 4.94317 7.8506 4.10232 8.41979L3.98462 8.49948C3.84484 8.59411 3.88925 8.81049 4.05499 8.84242L7.71587 9.54769L9.18091 9.86225L9.53037 8.29673L8.00821 8.03027Z" fill="#ABAADD"/>
<path d="M7.25186 7.88458L6.98394 9.27536C6.97574 9.31796 6.96992 9.36064 6.96619 9.40327L7.71594 9.54771L9.18098 9.86227L9.53044 8.29674L8.00824 8.03033L7.25186 7.88458Z" fill="#8784B1"/>
<path d="M9.99986 7.35523L8.76715 7.11774L8.61809 7.80051L8.02136 10.5339L9.38799 10.7971C9.39026 10.7976 9.39258 10.7979 9.39485 10.7983L9.87803 8.04863L9.99986 7.35523Z" fill="#ABAADD"/>
<path d="M9.49724 10.2299L8.1065 9.96201C7.85603 9.91375 7.6921 9.6716 7.74036 9.42113L8.00828 8.03038C8.05654 7.77991 8.29869 7.61599 8.54916 7.66425L9.9399 7.93217C10.1904 7.98043 10.3543 8.22258 10.306 8.47305L10.0381 9.86379C9.98986 10.1142 9.74771 10.2781 9.49724 10.2299Z" fill="#ABAADD"/>
<path d="M8.75586 9.59707C8.51394 9.55046 8.3556 9.31655 8.4022 9.07467L8.66942 7.68744L8.5491 7.66425C8.29863 7.61599 8.05648 7.77991 8.00822 8.03038L7.7403 9.42113C7.69204 9.6716 7.85596 9.91375 8.10643 9.96201L9.49718 10.2299C9.74765 10.2782 9.9898 10.1143 10.0381 9.86379L10.0417 9.8448L8.75586 9.59707Z" fill="#8784B1"/>
</svg>
