<svg width="27" height="27" viewBox="0 0 27 27" fill="none" xmlns="http://www.w3.org/2000/svg">
<path d="M18.3309 11.5094C17.0599 11.054 16.2255 9.85211 16.2255 8.50476V4.90602C16.2255 4.51733 15.8953 4.18762 15.5071 4.18762H12.8303C12.4759 4.18762 12.1719 4.45883 12.1274 4.81078L11 13.754V23.2227C11 24.1253 11.7406 24.8461 12.6437 24.8461H21.3781C22.2806 24.8461 23 24.1253 23 23.2227V18.1175C23.0005 15.1439 21.1358 12.4816 18.3309 11.5094ZM21.2659 22.7257C21.2659 22.9316 21.1093 23.0897 20.9033 23.0897H13.1155C12.9096 23.0897 12.7341 22.9316 12.7341 22.7257V14.352C14.0336 15.6689 18.0152 12.7673 20.3169 15.1879C20.9894 15.8932 21.2659 17.0989 21.2659 18.1751V22.7257Z" fill="#ABAADD"/>
<path d="M16.0732 2.72468C16.0732 2.32439 15.7488 2 15.3485 2H13.0613C12.6611 2 12.3367 2.32439 12.3367 2.72468V2.99492C12.3367 3.23423 12.5305 3.42809 12.7698 3.42809H15.64C15.8793 3.42809 16.0732 3.23423 16.0732 2.99492V2.72468Z" fill="#ABAADD"/>
</svg>
